<?xml version="1.0" standalone="no"?>
<!DOCTYPE svg PUBLIC "-//W3C//DTD SVG 20010904//EN"
 "http://www.w3.org/TR/2001/REC-SVG-20010904/DTD/svg10.dtd">
<svg version="1.0" xmlns="http://www.w3.org/2000/svg"
 width="163.000000pt" height="163.000000pt" viewBox="0 0 163.000000 163.000000"
 preserveAspectRatio="xMidYMid meet">
<metadata>
Created by potrace 1.11, written by Peter Selinger 2001-2013
</metadata>
<g transform="translate(0.000000,163.000000) scale(0.100000,-0.100000)"
fill="#000000" stroke="none">
<path d="M323 1533 c71 -2 183 -2 250 0 67 1 10 3 -128 3 -137 0 -192 -2 -122
-3z"/>
<path d="M186 1519 c4 -7 -25 -23 -36 -21 -8 1 -7 8 -9 -328 -1 -162 1 -295 6
-295 4 0 15 -5 23 -10 16 -11 551 -24 544 -14 -4 8 31 41 37 35 2 -2 4 130 4
294 0 164 -3 296 -7 293 -5 -2 -8 0 -8 6 0 29 -49 36 -302 41 -141 3 -254 2
-252 -1z m465 -39 c18 -10 19 -24 19 -281 l0 -269 -27 -11 c-42 -16 -436 -8
-456 10 -15 12 -17 43 -17 265 0 258 2 276 40 289 29 10 421 7 441 -3z"/>
<path d="M328 1383 c-16 -4 -18 -21 -18 -184 0 -171 1 -179 19 -179 11 0 22 4
25 9 4 5 18 5 34 -1 39 -15 76 -4 118 35 29 26 37 42 41 80 5 43 3 49 -31 83
-34 34 -40 36 -81 31 l-45 -5 0 69 c0 74 -4 77 -62 62z m133 -180 c18 -20 17
-106 0 -127 -15 -18 -57 -21 -67 -5 -3 6 -6 37 -6 69 0 32 3 63 6 69 11 17 52
13 67 -6z"/>
<path d="M919 1491 l-29 -29 0 -271 c0 -177 4 -278 11 -294 20 -43 45 -47 303
-47 231 0 245 1 270 21 l26 20 0 284 c0 156 -3 291 -6 300 -16 39 -53 45 -304
45 l-242 0 -29 -29z m491 -21 c19 -19 20 -33 20 -272 0 -142 -4 -260 -10 -268
-8 -13 -45 -15 -232 -15 -123 0 -231 3 -240 7 -17 7 -18 29 -18 272 0 262 0
265 22 280 19 13 58 16 230 16 195 0 209 -1 228 -20z"/>
<path d="M1140 1371 c-13 -25 -4 -48 21 -56 26 -8 49 11 49 40 0 37 -52 49
-70 16z"/>
<path d="M1166 1251 l-29 -6 0 -110 0 -110 36 -3 37 -3 0 120 c0 67 -3 120 -7
120 -5 -1 -21 -4 -37 -8z"/>
<path d="M323 833 c71 -2 183 -2 250 0 67 1 10 3 -128 3 -137 0 -192 -2 -122
-3z"/>
<path d="M313 763 c71 -2 183 -2 250 0 67 1 10 3 -128 3 -137 0 -192 -2 -122
-3z"/>
<path d="M1068 763 c67 -2 177 -2 245 0 67 1 12 3 -123 3 -135 0 -190 -2 -122
-3z"/>
<path d="M175 752 c1 -2 -8 -15 -21 -29 l-25 -27 1 -298 c1 -163 5 -297 8
-296 12 2 42 -14 38 -21 -2 -3 117 -6 264 -6 148 0 267 2 264 4 -2 2 3 9 12
15 8 6 19 29 24 51 13 54 12 491 0 536 -18 64 -17 63 -306 69 -144 3 -261 4
-259 2z m466 -42 c18 -10 19 -24 19 -281 l0 -269 -27 -11 c-17 -6 -109 -9
-236 -7 -193 3 -210 4 -223 22 -11 16 -14 68 -14 257 0 131 4 249 9 263 6 13
18 26 28 29 38 10 425 7 444 -3z"/>
<path d="M367 548 c-24 -8 -28 -15 -24 -35 3 -19 0 -27 -14 -30 -25 -7 -24
-29 1 -36 20 -5 21 -10 14 -80 -6 -68 -5 -76 15 -96 24 -24 48 -26 86 -9 32
14 33 38 1 38 -30 0 -32 5 -28 85 4 61 5 65 28 65 15 0 24 6 24 15 0 9 -9 15
-25 15 -22 0 -25 4 -25 40 0 43 -5 46 -53 28z"/>
<path d="M936 751 c5 -5 -39 -37 -47 -34 -4 1 -5 -8 -2 -20 4 -18 3 -20 -7 -7
-10 13 -11 13 -6 -2 3 -9 6 -143 7 -297 1 -155 5 -279 9 -276 4 2 16 -5 26
-17 13 -15 14 -19 4 -14 -8 4 -6 0 4 -8 17 -14 55 -16 270 -14 l251 2 -255 6
-255 5 265 6 c284 7 285 7 290 23 1 6 4 141 7 299 l4 288 -29 29 c-16 16 -28
30 -27 32 2 2 -113 3 -255 3 -142 0 -256 -2 -254 -4z m462 -47 c22 -15 22 -18
22 -280 l0 -264 -27 -11 c-17 -6 -109 -9 -241 -7 -176 2 -214 6 -222 18 -6 8
-10 128 -10 272 0 254 0 257 22 272 19 13 58 16 228 16 170 0 209 -3 228 -16z"/>
<path d="M1113 480 c-26 -10 -41 -56 -26 -79 5 -9 29 -26 51 -39 31 -18 42
-30 42 -48 0 -32 -39 -36 -72 -7 -21 19 -38 9 -38 -22 0 -21 6 -25 45 -31 54
-8 89 0 115 26 38 38 13 96 -47 114 -29 9 -45 30 -37 50 8 22 37 20 59 -4 24
-26 32 -25 38 5 3 18 -1 29 -14 35 -22 12 -86 12 -116 0z"/>
<path d="M746 697 c3 -10 9 -15 12 -12 3 3 0 11 -7 18 -10 9 -11 8 -5 -6z"/>
<path d="M747 131 c-4 -17 -3 -21 5 -13 5 5 8 16 6 23 -3 8 -7 3 -11 -10z"/>
<path d="M313 63 c70 -2 184 -2 255 0 70 1 12 3 -128 3 -140 0 -198 -2 -127
-3z"/>
</g>
</svg>
